<?xml version="1.0" encoding="UTF-8"?>
<svg xmlns="http://www.w3.org/2000/svg" viewBox="270 210 280 105">
  <defs>
    <style>
      .st0 {
        fill: #282352;
      }
    </style>
  </defs>
  <path class="st0" d="M539.53,262.08c-.48-7.48-5.34-11.49-11.75-13.95-3.5-1.35-7.2-2.18-10.81-3.28-4.33-1.33-8.75-2.45-12.95-4.11-3.69-1.46-6.55-4.07-7.38-8.26-1.23-6.21,2.14-12.15,8.12-14.41,7.4-2.8,14.81-2.41,22.16.1,2.04.7,3.99,1.67,5.99,2.63,1.09.52,2.4.06,2.93-1.03l.02-.04c.5-1.02.13-2.23-.83-2.84-9.23-5.88-24.44-7.05-33.71-2.48-9.99,4.92-12.02,15.41-8.53,23,2.22,4.84,6.56,7.27,11.36,8.77,6.67,2.09,13.49,3.71,20.15,5.82,3.85,1.22,7.42,3.23,9.21,7.16,2.41,5.31.35,11.76-4.87,14.87-6.82,4.06-14.27,3.86-21.73,2.47-4.96-.93-9.47-2.88-13.4-6.15-1.01-.84-2.54-.58-3.24.53-1.17,1.83-.66,2.35,1.84,4.04,11.62,7.9,24.13,9.34,37.11,4.07,7.3-2.96,10.81-9.23,10.32-16.91Z"/>
  <path class="st0" d="M478.01,270.68l-.03-.03c-.83-.85-2.16-.89-3.08-.14-12.52,10.26-31.78,7.95-41.86-2.17-10.57-10.62-11.63-28.72-2.34-40.44,4.91-6.19,11.38-9.88,19.13-11.07,9.31-1.43,17.87.24,25.23,6.29.93.76,2.28.7,3.1-.17l.08-.09c.88-.92.82-2.39-.13-3.24-12.73-11.48-36.84-10.34-49.09,2.34-13.88,14.36-13.09,39.8,3.34,52.5,14.7,11.36,36.51,8.62,45.66-.61.87-.87.86-2.29,0-3.17Z"/>
  <path class="st0" d="M337.74,281.2c.48.24,1.04.3,1.58.32.53.02,1.09.01,1.56-.24,1.66-.88.44-2.81-.09-3.97-1.91-4.17-3.84-8.33-5.75-12.49-7.74-16.84-15.52-33.67-23.14-50.56-.95-2.11-2.25-2.18-4.1-2.27-1.84-.1-2.55.76-3.21,2.25-1.94,4.44-4,8.83-6.03,13.23-7.76,16.84-15.52,33.67-23.27,50.52-.49,1.06-1.05,2.59.34,3.27.37.18.78.22,1.19.23.72,0,1.46-.1,2.07-.48.63-.4,1.05-1.05,1.37-1.73,1.38-2.9,2.66-5.84,3.99-8.77,2.55-5.61,5.09-11.23,7.64-16.84,2.55-5.61,5.09-11.23,7.64-16.84,2.3-5.08,4.61-10.16,7.06-15.56.61-1.35,2.53-1.35,3.14,0,1.38,3.02,2.65,5.83,3.93,8.64.29.63.57,1.26.86,1.89,1.91,4.2,3.83,8.41,5.74,12.61s3.83,8.41,5.74,12.61,3.83,8.4,5.75,12.61c.96,2.1,1.92,4.2,2.88,6.3.48,1.05.96,2.1,1.44,3.15.38.83.8,1.69,1.66,2.12Z"/>
  <path class="st0" d="M404.06,222.25c-4.29-6.18-10.69-9.25-17.91-9.67-10.14-.58-20.34-.35-30.51-.45-.13,0-.25.16-.44.28v1.66c0,1.46,1.17,2.63,2.63,2.65.07,0,.14,0,.2,0,9.02.13,18.05-.05,27.05.48,9.23.55,15.47,5.73,17.07,13.87,1.3,6.63.45,12.96-4.96,17.81-3.52,3.16-7.86,4.67-12.47,4.83-8.93.32-17.88.29-26.82.41-1.46.02-2.64,1.21-2.64,2.67v20.95c0,.29,0,.59,0,.88,0,1.04.41,2.06,1.36,2.57.5.27,1.07.36,1.63.38.03,0,.05,0,.08,0,.51.01,1.15-.02,1.51-.43.2-.22.29-.51.36-.79.22-1.03.15-2.14.15-3.18v-15.71c0-1.47,1.2-2.66,2.67-2.65,2.28.02,4.45.05,6.61-.03,6.53-.25,13.16,0,19.57-1.04,16.69-2.72,24.49-21.65,14.86-35.5Z"/>
  <path class="st0" d="M275.06,303.97l-2.68,6.35h1.84l.45-1.12h2.43l.46,1.12h1.87l-2.68-6.35h-1.68ZM275.17,307.84l.71-1.79.7,1.79h-1.41Z"/>
  <polygon class="st0" points="284.93 304.02 283.18 304.02 283.18 310.32 287.98 310.32 287.98 308.79 284.93 308.79 284.93 304.02"/>
  <path class="st0" d="M294.57,307.92h1.24v.76c-.26.17-.59.26-1.01.26-1,0-1.71-.73-1.71-1.75v-.02c0-.96.7-1.73,1.61-1.73.62,0,1.07.22,1.52.59l1.03-1.23c-.67-.58-1.45-.92-2.56-.92-1.95,0-3.39,1.44-3.39,3.28v.02c0,1.91,1.47,3.26,3.43,3.26,1.14,0,2.07-.42,2.74-.97v-2.83h-2.9v1.28Z"/>
  <polygon class="st0" points="303.32 307.84 306.34 307.84 306.34 306.46 303.32 306.46 303.32 305.5 306.66 305.5 306.66 304.02 301.59 304.02 301.59 310.32 306.7 310.32 306.7 308.84 303.32 308.84 303.32 307.84"/>
  <path class="st0" d="M316.33,306.19v-.02c0-.62-.19-1.11-.56-1.47-.42-.43-1.09-.68-2.05-.68h-2.98v6.3h1.75v-1.91h.77l1.27,1.91h2.02l-1.5-2.2c.78-.33,1.3-.97,1.3-1.94ZM314.58,306.3c0,.46-.34.75-.94.75h-1.15v-1.51h1.14c.58,0,.94.25.94.75v.02Z"/>
  <rect class="st0" x="320.4" y="304.02" width="1.76" height="6.3"/>
  <path class="st0" d="M328.63,303.97l-2.68,6.35h1.84l.45-1.12h2.43l.46,1.12h1.87l-2.68-6.35h-1.68ZM328.75,307.84l.71-1.79.7,1.79h-1.41Z"/>
  <polygon class="st0" points="340.98 307.35 338.39 304.02 336.76 304.02 336.76 310.32 338.49 310.32 338.49 306.86 341.18 310.32 342.71 310.32 342.71 304.02 340.98 304.02 340.98 307.35"/>
  <path class="st0" d="M355.32,304.02h-2.7v6.3h1.75v-1.8h.86c1.57,0,2.71-.78,2.71-2.27v-.02c0-1.4-1.03-2.21-2.62-2.21ZM356.19,306.33c0,.5-.38.82-1,.82h-.83v-1.67h.82c.63,0,1.01.29,1.01.83v.02Z"/>
  <path class="st0" d="M365.01,303.89c-1.94,0-3.4,1.47-3.4,3.28v.02c0,1.81,1.44,3.26,3.38,3.26s3.4-1.47,3.4-3.28v-.02c0-1.81-1.44-3.26-3.39-3.26ZM366.61,307.19c0,.91-.64,1.68-1.6,1.68s-1.61-.79-1.61-1.7v-.02c0-.91.64-1.68,1.59-1.68s1.62.79,1.62,1.7v.02Z"/>
  <path class="st0" d="M378.05,306.19v-.02c0-.62-.19-1.11-.56-1.47-.42-.43-1.09-.68-2.05-.68h-2.98v6.3h1.75v-1.91h.77l1.27,1.91h2.02l-1.5-2.2c.78-.33,1.3-.97,1.3-1.94ZM376.29,306.3c0,.46-.34.75-.94.75h-1.15v-1.51h1.14c.58,0,.95.25.95.75v.02Z"/>
  <polygon class="st0" points="381.72 305.55 383.61 305.55 383.61 310.32 385.36 310.32 385.36 305.55 387.25 305.55 387.25 304.02 381.72 304.02 381.72 305.55"/>
  <path class="st0" d="M399.9,308.85c-.88,0-1.5-.74-1.5-1.68v-.02c0-.92.62-1.67,1.5-1.67.6,0,1.02.29,1.38.74l1.31-1.02c-.56-.77-1.39-1.31-2.67-1.31-1.91,0-3.32,1.44-3.32,3.28v.02c0,1.88,1.45,3.26,3.25,3.26,1.4,0,2.2-.6,2.79-1.42l-1.31-.94c-.38.46-.77.76-1.42.76Z"/>
  <path class="st0" d="M409.54,303.89c-1.94,0-3.4,1.47-3.4,3.28v.02c0,1.81,1.44,3.26,3.39,3.26s3.4-1.47,3.4-3.28v-.02c0-1.81-1.44-3.26-3.38-3.26ZM411.14,307.19c0,.91-.64,1.68-1.6,1.68s-1.61-.79-1.61-1.7v-.02c0-.91.64-1.68,1.59-1.68s1.62.79,1.62,1.7v.02Z"/>
  <polygon class="st0" points="420.33 306.46 418.82 304.02 416.98 304.02 416.98 310.32 418.69 310.32 418.69 306.72 420.29 309.17 420.33 309.17 421.94 306.7 421.94 310.32 423.68 310.32 423.68 304.02 421.83 304.02 420.33 306.46"/>
  <polygon class="st0" points="431.29 306.46 429.78 304.02 427.94 304.02 427.94 310.32 429.65 310.32 429.65 306.72 431.25 309.17 431.29 309.17 432.9 306.7 432.9 310.32 434.64 310.32 434.64 304.02 432.79 304.02 431.29 306.46"/>
  <path class="st0" d="M442.92,307.57c0,.88-.46,1.3-1.16,1.3s-1.16-.43-1.16-1.34v-3.5h-1.77v3.54c0,1.97,1.12,2.88,2.92,2.88s2.95-.89,2.95-2.93v-3.49h-1.77v3.55Z"/>
  <polygon class="st0" points="453.1 307.35 450.5 304.02 448.87 304.02 448.87 310.32 450.6 310.32 450.6 306.86 453.29 310.32 454.82 310.32 454.82 304.02 453.1 304.02 453.1 307.35"/>
  <rect class="st0" x="459.12" y="304.02" width="1.76" height="6.3"/>
  <polygon class="st0" points="464.83 305.55 466.72 305.55 466.72 310.32 468.47 310.32 468.47 305.55 470.36 305.55 470.36 304.02 464.83 304.02 464.83 305.55"/>
  <polygon class="st0" points="476.98 306.32 475.68 304.02 473.7 304.02 476.09 307.96 476.09 310.32 477.84 310.32 477.84 307.94 480.24 304.02 478.29 304.02 476.98 306.32"/>
  <path class="st0" d="M492.25,306.4c-.87-.2-1.09-.32-1.09-.61v-.02c0-.22.21-.41.63-.41.56,0,1.19.22,1.76.62l.87-1.23c-.68-.55-1.52-.84-2.59-.84-1.51,0-2.44.85-2.44,2.02v.02c0,1.3,1.04,1.67,2.38,1.98.86.2,1.06.34,1.06.6v.02c0,.27-.25.43-.72.43-.73,0-1.42-.26-2.04-.76l-.97,1.16c.77.69,1.84,1.04,2.95,1.04,1.53,0,2.55-.77,2.55-2.05v-.02c0-1.18-.9-1.65-2.35-1.96Z"/>
  <polygon class="st0" points="501.03 306.32 499.73 304.02 497.74 304.02 500.14 307.96 500.14 310.32 501.89 310.32 501.89 307.94 504.29 304.02 502.34 304.02 501.03 306.32"/>
  <path class="st0" d="M510.34,306.4c-.87-.2-1.09-.32-1.09-.61v-.02c0-.22.21-.41.63-.41.56,0,1.19.22,1.76.62l.87-1.23c-.68-.55-1.52-.84-2.59-.84-1.51,0-2.44.85-2.44,2.02v.02c0,1.3,1.04,1.67,2.38,1.98.86.2,1.06.34,1.06.6v.02c0,.27-.25.43-.72.43-.73,0-1.42-.26-2.04-.76l-.97,1.16c.77.69,1.84,1.04,2.95,1.04,1.53,0,2.55-.77,2.55-2.05v-.02c0-1.18-.9-1.65-2.35-1.96Z"/>
  <polygon class="st0" points="516.15 305.55 518.04 305.55 518.04 310.32 519.79 310.32 519.79 305.55 521.68 305.55 521.68 304.02 516.15 304.02 516.15 305.55"/>
  <polygon class="st0" points="527.32 307.84 530.34 307.84 530.34 306.46 527.32 306.46 527.32 305.5 530.66 305.5 530.66 304.02 525.59 304.02 525.59 310.32 530.7 310.32 530.7 308.84 527.32 308.84 527.32 307.84"/>
  <polygon class="st0" points="539.59 304.02 538.09 306.46 536.59 304.02 534.74 304.02 534.74 310.32 536.45 310.32 536.45 306.72 538.06 309.17 538.09 309.17 539.7 306.7 539.7 310.32 541.44 310.32 541.44 304.02 539.59 304.02"/>
</svg>
